<?xml version="1.0" encoding="UTF-8"?>
<svg xmlns="http://www.w3.org/2000/svg" xmlns:xlink="http://www.w3.org/1999/xlink" width="360.000mm" height="560.000mm" viewBox="-1740.000000 170.000000 360.000000 560.000000">
    <path transform="matrix(1,0,0,-1,-1740,730)" style="stroke:#000000;stroke-width:0.05mm;fill:none" d="M10,560L350,560C355.522858,560,360,555.522827,360,550L360,10C360,4.477152,355.522858,0,350,0L10,0C4.47715,0.000002,-0.000001,4.477155,0,10L0,550C0,555.522827,4.477152,560,10,560z"/>
    <path transform="matrix(1,0,0,-1,-1740,730)" style="stroke:#000000;stroke-width:0.05mm;fill:none" d="M37.5,545L37.5,535C37.5,533.619263,38.619289,532.5,40,532.5C41.380714,532.5,42.5,533.619263,42.5,535L42.5,545C42.5,546.380737,41.380711,547.5,40,547.5C38.619289,547.5,37.5,546.380737,37.5,545z"/>
    <path transform="matrix(1,0,0,-1,-1740,730)" style="stroke:#000000;stroke-width:0.05mm;fill:none" d="M37.5,505L37.5,495C37.5,493.619293,38.619289,492.5,40,492.5C41.380714,492.5,42.5,493.619293,42.5,495L42.5,505C42.5,506.380707,41.380711,507.5,40,507.5C38.619289,507.5,37.5,506.380707,37.5,505z"/>
    <path transform="matrix(1,0,0,-1,-1740,730)" style="stroke:#000000;stroke-width:0.05mm;fill:none" d="M17.5,525L17.5,515C17.5,513.619263,18.619289,512.5,20,512.5C21.380713,512.5,22.5,513.619263,22.5,515L22.5,525C22.5,526.380737,21.380713,527.5,20,527.5C18.619287,527.5,17.5,526.380737,17.5,525z"/>
    <path transform="matrix(1,0,0,-1,-1740,730)" style="stroke:#000000;stroke-width:0.05mm;fill:none" d="M57.5,525L57.5,515C57.5,513.619263,58.619289,512.5,60,512.5C61.380714,512.5,62.5,513.619263,62.5,515L62.5,525C62.5,526.380737,61.380711,527.5,60,527.5C58.619289,527.5,57.5,526.380737,57.5,525z"/>
    <path transform="matrix(1,0,0,-1,-1740,730)" style="stroke:#000000;stroke-width:0.05mm;fill:none" d="M77.5,545L77.5,535C77.5,533.619263,78.619286,532.5,80,532.5C81.380714,532.5,82.5,533.619263,82.5,535L82.5,545C82.5,546.380737,81.380714,547.5,80,547.5C78.619286,547.5,77.5,546.380737,77.5,545z"/>
    <path transform="matrix(1,0,0,-1,-1740,730)" style="stroke:#000000;stroke-width:0.05mm;fill:none" d="M97.5,525L97.5,515C97.5,513.619263,98.619286,512.5,100,512.5C101.380714,512.5,102.5,513.619263,102.5,515L102.5,525C102.5,526.380737,101.380714,527.5,100,527.5C98.619286,527.5,97.5,526.380737,97.5,525z"/>
    <path transform="matrix(1,0,0,-1,-1740,730)" style="stroke:#000000;stroke-width:0.05mm;fill:none" d="M117.5,545L117.5,535C117.5,533.619263,118.619286,532.5,120,532.5C121.380714,532.5,122.5,533.619263,122.5,535L122.5,545C122.5,546.380737,121.380714,547.5,120,547.5C118.619286,547.5,117.5,546.380737,117.5,545z"/>
    <path transform="matrix(1,0,0,-1,-1740,730)" style="stroke:#000000;stroke-width:0.05mm;fill:none" d="M137.5,525L137.5,515C137.5,513.619263,138.619293,512.5,140,512.5C141.380707,512.5,142.5,513.619263,142.5,515L142.5,525C142.5,526.380737,141.380707,527.5,140,527.5C138.619293,527.5,137.5,526.380737,137.5,525z"/>
    <path transform="matrix(1,0,0,-1,-1740,730)" style="stroke:#000000;stroke-width:0.05mm;fill:none" d="M157.5,545L157.5,535C157.5,533.619263,158.619293,532.5,160,532.5C161.380707,532.5,162.5,533.619263,162.5,535L162.5,545C162.5,546.380737,161.380707,547.5,160,547.5C158.619293,547.5,157.5,546.380737,157.5,545z"/>
    <path transform="matrix(1,0,0,-1,-1740,730)" style="stroke:#000000;stroke-width:0.05mm;fill:none" d="M177.5,525L177.5,515C177.5,513.619263,178.619293,512.5,180,512.5C181.380707,512.5,182.5,513.619263,182.5,515L182.5,525C182.5,526.380737,181.380707,527.5,180,527.5C178.619293,527.5,177.5,526.380737,177.5,525z"/>
    <path transform="matrix(1,0,0,-1,-1740,730)" style="stroke:#000000;stroke-width:0.05mm;fill:none" d="M197.5,545L197.5,535C197.5,533.619263,198.619293,532.5,200,532.5C201.380707,532.5,202.5,533.619263,202.5,535L202.5,545C202.5,546.380737,201.380707,547.5,200,547.5C198.619293,547.5,197.5,546.380737,197.5,545z"/>
    <path transform="matrix(1,0,0,-1,-1740,730)" style="stroke:#000000;stroke-width:0.05mm;fill:none" d="M217.5,525L217.5,515C217.5,513.619263,218.619293,512.5,220,512.5C221.380707,512.5,222.5,513.619263,222.5,515L222.5,525C222.5,526.380737,221.380707,527.5,220,527.5C218.619293,527.5,217.5,526.380737,217.5,525z"/>
    <path transform="matrix(1,0,0,-1,-1740,730)" style="stroke:#000000;stroke-width:0.05mm;fill:none" d="M237.5,545L237.5,535C237.5,533.619263,238.619293,532.5,240,532.5C241.380707,532.5,242.5,533.619263,242.5,535L242.5,545C242.5,546.380737,241.380707,547.5,240,547.5C238.619293,547.5,237.5,546.380737,237.5,545z"/>
    <path transform="matrix(1,0,0,-1,-1740,730)" style="stroke:#000000;stroke-width:0.05mm;fill:none" d="M257.5,525L257.5,515C257.5,513.619263,258.619293,512.5,260,512.5C261.380707,512.5,262.5,513.619263,262.5,515L262.5,525C262.5,526.380737,261.380707,527.5,260,527.5C258.619293,527.5,257.5,526.380737,257.5,525z"/>
    <path transform="matrix(1,0,0,-1,-1740,730)" style="stroke:#000000;stroke-width:0.05mm;fill:none" d="M277.5,545L277.5,535C277.5,533.619263,278.619293,532.5,280,532.5C281.380707,532.5,282.5,533.619263,282.5,535L282.5,545C282.5,546.380737,281.380707,547.5,280,547.5C278.619293,547.5,277.5,546.380737,277.5,545z"/>
    <path transform="matrix(1,0,0,-1,-1740,730)" style="stroke:#000000;stroke-width:0.05mm;fill:none" d="M297.5,525L297.5,515C297.5,513.619263,298.619293,512.5,300,512.5C301.380707,512.5,302.5,513.619263,302.5,515L302.5,525C302.5,526.380737,301.380707,527.5,300,527.5C298.619293,527.5,297.5,526.380737,297.5,525z"/>
    <path transform="matrix(1,0,0,-1,-1740,730)" style="stroke:#000000;stroke-width:0.05mm;fill:none" d="M317.5,545L317.5,535C317.5,533.619263,318.619293,532.5,320,532.5C321.380707,532.5,322.5,533.619263,322.5,535L322.5,545C322.5,546.380737,321.380707,547.5,320,547.5C318.619293,547.5,317.5,546.380737,317.5,545z"/>
    <path transform="matrix(1,0,0,-1,-1740,730)" style="stroke:#000000;stroke-width:0.05mm;fill:none" d="M337.5,525L337.5,515C337.5,513.619263,338.619293,512.5,340,512.5C341.380707,512.5,342.5,513.619263,342.5,515L342.5,525C342.5,526.380737,341.380707,527.5,340,527.5C338.619293,527.5,337.5,526.380737,337.5,525z"/>
    <path transform="matrix(1,0,0,-1,-1740,730)" style="stroke:#000000;stroke-width:0.05mm;fill:none" d="M77.5,505L77.5,495C77.5,493.619293,78.619286,492.5,80,492.5C81.380714,492.5,82.5,493.619293,82.5,495L82.5,505C82.5,506.380707,81.380714,507.5,80,507.5C78.619286,507.5,77.5,506.380707,77.5,505z"/>
    <path transform="matrix(1,0,0,-1,-1740,730)" style="stroke:#000000;stroke-width:0.05mm;fill:none" d="M117.5,505L117.5,495C117.5,493.619293,118.619286,492.5,120,492.5C121.380714,492.5,122.5,493.619293,122.5,495L122.5,505C122.5,506.380707,121.380714,507.5,120,507.5C118.619286,507.5,117.5,506.380707,117.5,505z"/>
    <path transform="matrix(1,0,0,-1,-1740,730)" style="stroke:#000000;stroke-width:0.05mm;fill:none" d="M157.5,505L157.5,495C157.5,493.619293,158.619293,492.5,160,492.5C161.380707,492.5,162.5,493.619293,162.5,495L162.5,505C162.5,506.380707,161.380707,507.5,160,507.5C158.619293,507.5,157.5,506.380707,157.5,505z"/>
    <path transform="matrix(1,0,0,-1,-1740,730)" style="stroke:#000000;stroke-width:0.05mm;fill:none" d="M197.5,505L197.5,495C197.5,493.619293,198.619293,492.5,200,492.5C201.380707,492.5,202.5,493.619293,202.5,495L202.5,505C202.5,506.380707,201.380707,507.5,200,507.5C198.619293,507.5,197.5,506.380707,197.5,505z"/>
    <path transform="matrix(1,0,0,-1,-1740,730)" style="stroke:#000000;stroke-width:0.05mm;fill:none" d="M237.5,505L237.5,495C237.5,493.619293,238.619293,492.5,240,492.5C241.380707,492.5,242.5,493.619293,242.5,495L242.5,505C242.5,506.380707,241.380707,507.5,240,507.5C238.619293,507.5,237.5,506.380707,237.5,505z"/>
    <path transform="matrix(1,0,0,-1,-1740,730)" style="stroke:#000000;stroke-width:0.05mm;fill:none" d="M277.5,505L277.5,495C277.5,493.619293,278.619293,492.5,280,492.5C281.380707,492.5,282.5,493.619293,282.5,495L282.5,505C282.5,506.380707,281.380707,507.5,280,507.5C278.619293,507.5,277.5,506.380707,277.5,505z"/>
    <path transform="matrix(1,0,0,-1,-1740,730)" style="stroke:#000000;stroke-width:0.05mm;fill:none" d="M317.5,505L317.5,495C317.5,493.619293,318.619293,492.5,320,492.5C321.380707,492.5,322.5,493.619293,322.5,495L322.5,505C322.5,506.380707,321.380707,507.5,320,507.5C318.619293,507.5,317.5,506.380707,317.5,505z"/>
    <path transform="matrix(1,0,0,-1,-1740,730)" style="stroke:#000000;stroke-width:0.05mm;fill:none" d="M37.5,465L37.5,455C37.5,453.619293,38.619289,452.5,40,452.5C41.380714,452.5,42.5,453.619293,42.5,455L42.5,465C42.5,466.380707,41.380711,467.5,40,467.5C38.619289,467.5,37.5,466.380707,37.5,465z"/>
    <path transform="matrix(1,0,0,-1,-1740,730)" style="stroke:#000000;stroke-width:0.05mm;fill:none" d="M17.5,485L17.5,475C17.5,473.619293,18.619289,472.5,20,472.5C21.380713,472.5,22.5,473.619293,22.5,475L22.5,485C22.5,486.380707,21.380713,487.5,20,487.5C18.619287,487.5,17.5,486.380707,17.5,485z"/>
    <path transform="matrix(1,0,0,-1,-1740,730)" style="stroke:#000000;stroke-width:0.05mm;fill:none" d="M57.5,485L57.5,475C57.5,473.619293,58.619289,472.5,60,472.5C61.380714,472.5,62.5,473.619293,62.5,475L62.5,485C62.5,486.380707,61.380711,487.5,60,487.5C58.619289,487.5,57.5,486.380707,57.5,485z"/>
    <path transform="matrix(1,0,0,-1,-1740,730)" style="stroke:#000000;stroke-width:0.05mm;fill:none" d="M97.5,485L97.5,475C97.5,473.619293,98.619286,472.5,100,472.5C101.380714,472.5,102.5,473.619293,102.5,475L102.5,485C102.5,486.380707,101.380714,487.5,100,487.5C98.619286,487.5,97.5,486.380707,97.5,485z"/>
    <path transform="matrix(1,0,0,-1,-1740,730)" style="stroke:#000000;stroke-width:0.05mm;fill:none" d="M137.5,485L137.5,475C137.5,473.619293,138.619293,472.5,140,472.5C141.380707,472.5,142.5,473.619293,142.5,475L142.5,485C142.5,486.380707,141.380707,487.5,140,487.5C138.619293,487.5,137.5,486.380707,137.5,485z"/>
    <path transform="matrix(1,0,0,-1,-1740,730)" style="stroke:#000000;stroke-width:0.05mm;fill:none" d="M177.5,485L177.5,475C177.5,473.619293,178.619293,472.5,180,472.5C181.380707,472.5,182.5,473.619293,182.5,475L182.5,485C182.5,486.380707,181.380707,487.5,180,487.5C178.619293,487.5,177.5,486.380707,177.5,485z"/>
    <path transform="matrix(1,0,0,-1,-1740,730)" style="stroke:#000000;stroke-width:0.05mm;fill:none" d="M217.5,485L217.5,475C217.5,473.619293,218.619293,472.5,220,472.5C221.380707,472.5,222.5,473.619293,222.5,475L222.5,485C222.5,486.380707,221.380707,487.5,220,487.5C218.619293,487.5,217.5,486.380707,217.5,485z"/>
    <path transform="matrix(1,0,0,-1,-1740,730)" style="stroke:#000000;stroke-width:0.05mm;fill:none" d="M257.5,485L257.5,475C257.5,473.619293,258.619293,472.5,260,472.5C261.380707,472.5,262.5,473.619293,262.5,475L262.5,485C262.5,486.380707,261.380707,487.5,260,487.5C258.619293,487.5,257.5,486.380707,257.5,485z"/>
    <path transform="matrix(1,0,0,-1,-1740,730)" style="stroke:#000000;stroke-width:0.05mm;fill:none" d="M297.5,485L297.5,475C297.5,473.619293,298.619293,472.5,300,472.5C301.380707,472.5,302.5,473.619293,302.5,475L302.5,485C302.5,486.380707,301.380707,487.5,300,487.5C298.619293,487.5,297.5,486.380707,297.5,485z"/>
    <path transform="matrix(1,0,0,-1,-1740,730)" style="stroke:#000000;stroke-width:0.05mm;fill:none" d="M337.5,485L337.5,475C337.5,473.619293,338.619293,472.5,340,472.5C341.380707,472.5,342.5,473.619293,342.5,475L342.5,485C342.5,486.380707,341.380707,487.5,340,487.5C338.619293,487.5,337.5,486.380707,337.5,485z"/>
    <path transform="matrix(1,0,0,-1,-1740,730)" style="stroke:#000000;stroke-width:0.05mm;fill:none" d="M77.5,465L77.5,455C77.5,453.619293,78.619286,452.5,80,452.5C81.380714,452.5,82.5,453.619293,82.5,455L82.5,465C82.5,466.380707,81.380714,467.5,80,467.5C78.619286,467.5,77.5,466.380707,77.5,465z"/>
    <path transform="matrix(1,0,0,-1,-1740,730)" style="stroke:#000000;stroke-width:0.05mm;fill:none" d="M117.5,465L117.5,455C117.5,453.619293,118.619286,452.5,120,452.5C121.380714,452.5,122.5,453.619293,122.5,455L122.5,465C122.5,466.380707,121.380714,467.5,120,467.5C118.619286,467.5,117.5,466.380707,117.5,465z"/>
    <path transform="matrix(1,0,0,-1,-1740,730)" style="stroke:#000000;stroke-width:0.05mm;fill:none" d="M157.5,465L157.5,455C157.5,453.619293,158.619293,452.5,160,452.5C161.380707,452.5,162.5,453.619293,162.5,455L162.5,465C162.5,466.380707,161.380707,467.5,160,467.5C158.619293,467.5,157.5,466.380707,157.5,465z"/>
    <path transform="matrix(1,0,0,-1,-1740,730)" style="stroke:#000000;stroke-width:0.05mm;fill:none" d="M197.5,465L197.5,455C197.5,453.619293,198.619293,452.5,200,452.5C201.380707,452.5,202.5,453.619293,202.5,455L202.5,465C202.5,466.380707,201.380707,467.5,200,467.5C198.619293,467.5,197.5,466.380707,197.5,465z"/>
    <path transform="matrix(1,0,0,-1,-1740,730)" style="stroke:#000000;stroke-width:0.05mm;fill:none" d="M237.5,465L237.5,455C237.5,453.619293,238.619293,452.5,240,452.5C241.380707,452.5,242.5,453.619293,242.5,455L242.5,465C242.5,466.380707,241.380707,467.5,240,467.5C238.619293,467.5,237.5,466.380707,237.5,465z"/>
    <path transform="matrix(1,0,0,-1,-1740,730)" style="stroke:#000000;stroke-width:0.05mm;fill:none" d="M277.5,465L277.5,455C277.5,453.619293,278.619293,452.5,280,452.5C281.380707,452.5,282.5,453.619293,282.5,455L282.5,465C282.5,466.380707,281.380707,467.5,280,467.5C278.619293,467.5,277.5,466.380707,277.5,465z"/>
    <path transform="matrix(1,0,0,-1,-1740,730)" style="stroke:#000000;stroke-width:0.05mm;fill:none" d="M317.5,465L317.5,455C317.5,453.619293,318.619293,452.5,320,452.5C321.380707,452.5,322.5,453.619293,322.5,455L322.5,465C322.5,466.380707,321.380707,467.5,320,467.5C318.619293,467.5,317.5,466.380707,317.5,465z"/>
    <path transform="matrix(1,0,0,-1,-1740,730)" style="stroke:#000000;stroke-width:0.05mm;fill:none" d="M37.5,425L37.5,415C37.5,413.619293,38.619289,412.5,40,412.5C41.380714,412.5,42.5,413.619293,42.5,415L42.5,425C42.5,426.380707,41.380711,427.5,40,427.5C38.619289,427.5,37.5,426.380707,37.5,425z"/>
    <path transform="matrix(1,0,0,-1,-1740,730)" style="stroke:#000000;stroke-width:0.05mm;fill:none" d="M17.5,445L17.5,435C17.5,433.619293,18.619289,432.5,20,432.5C21.380713,432.5,22.5,433.619293,22.5,435L22.5,445C22.5,446.380707,21.380713,447.5,20,447.5C18.619287,447.5,17.5,446.380707,17.5,445z"/>
    <path transform="matrix(1,0,0,-1,-1740,730)" style="stroke:#000000;stroke-width:0.05mm;fill:none" d="M57.5,445L57.5,435C57.5,433.619293,58.619289,432.5,60,432.5C61.380714,432.5,62.5,433.619293,62.5,435L62.5,445C62.5,446.380707,61.380711,447.5,60,447.5C58.619289,447.5,57.5,446.380707,57.5,445z"/>
    <path transform="matrix(1,0,0,-1,-1740,730)" style="stroke:#000000;stroke-width:0.05mm;fill:none" d="M97.5,445L97.5,435C97.5,433.619293,98.619286,432.5,100,432.5C101.380714,432.5,102.5,433.619293,102.5,435L102.5,445C102.5,446.380707,101.380714,447.5,100,447.5C98.619286,447.5,97.5,446.380707,97.5,445z"/>
    <path transform="matrix(1,0,0,-1,-1740,730)" style="stroke:#000000;stroke-width:0.05mm;fill:none" d="M137.5,445L137.5,435C137.5,433.619293,138.619293,432.5,140,432.5C141.380707,432.5,142.5,433.619293,142.5,435L142.5,445C142.5,446.380707,141.380707,447.5,140,447.5C138.619293,447.5,137.5,446.380707,137.5,445z"/>
    <path transform="matrix(1,0,0,-1,-1740,730)" style="stroke:#000000;stroke-width:0.05mm;fill:none" d="M177.5,445L177.5,435C177.5,433.619293,178.619293,432.5,180,432.5C181.380707,432.5,182.5,433.619293,182.5,435L182.5,445C182.5,446.380707,181.380707,447.5,180,447.5C178.619293,447.5,177.5,446.380707,177.5,445z"/>
    <path transform="matrix(1,0,0,-1,-1740,730)" style="stroke:#000000;stroke-width:0.05mm;fill:none" d="M217.5,445L217.5,435C217.5,433.619293,218.619293,432.5,220,432.5C221.380707,432.5,222.5,433.619293,222.5,435L222.5,445C222.5,446.380707,221.380707,447.5,220,447.5C218.619293,447.5,217.5,446.380707,217.5,445z"/>
    <path transform="matrix(1,0,0,-1,-1740,730)" style="stroke:#000000;stroke-width:0.05mm;fill:none" d="M257.5,445L257.5,435C257.5,433.619293,258.619293,432.5,260,432.5C261.380707,432.5,262.5,433.619293,262.5,435L262.5,445C262.5,446.380707,261.380707,447.5,260,447.5C258.619293,447.5,257.5,446.380707,257.5,445z"/>
    <path transform="matrix(1,0,0,-1,-1740,730)" style="stroke:#000000;stroke-width:0.05mm;fill:none" d="M297.5,445L297.5,435C297.5,433.619293,298.619293,432.5,300,432.5C301.380707,432.5,302.5,433.619293,302.5,435L302.5,445C302.5,446.380707,301.380707,447.5,300,447.5C298.619293,447.5,297.5,446.380707,297.5,445z"/>
    <path transform="matrix(1,0,0,-1,-1740,730)" style="stroke:#000000;stroke-width:0.05mm;fill:none" d="M337.5,445L337.5,435C337.5,433.619293,338.619293,432.5,340,432.5C341.380707,432.5,342.5,433.619293,342.5,435L342.5,445C342.5,446.380707,341.380707,447.5,340,447.5C338.619293,447.5,337.5,446.380707,337.5,445z"/>
    <path transform="matrix(1,0,0,-1,-1740,730)" style="stroke:#000000;stroke-width:0.05mm;fill:none" d="M77.5,425L77.5,415C77.5,413.619293,78.619286,412.5,80,412.5C81.380714,412.5,82.5,413.619293,82.5,415L82.5,425C82.5,426.380707,81.380714,427.5,80,427.5C78.619286,427.5,77.5,426.380707,77.5,425z"/>
    <path transform="matrix(1,0,0,-1,-1740,730)" style="stroke:#000000;stroke-width:0.05mm;fill:none" d="M117.5,425L117.5,415C117.5,413.619293,118.619286,412.5,120,412.5C121.380714,412.5,122.5,413.619293,122.5,415L122.5,425C122.5,426.380707,121.380714,427.5,120,427.5C118.619286,427.5,117.5,426.380707,117.5,425z"/>
    <path transform="matrix(1,0,0,-1,-1740,730)" style="stroke:#000000;stroke-width:0.05mm;fill:none" d="M157.5,425L157.5,415C157.5,413.619293,158.619293,412.5,160,412.5C161.380707,412.5,162.5,413.619293,162.5,415L162.5,425C162.5,426.380707,161.380707,427.5,160,427.5C158.619293,427.5,157.5,426.380707,157.5,425z"/>
    <path transform="matrix(1,0,0,-1,-1740,730)" style="stroke:#000000;stroke-width:0.05mm;fill:none" d="M197.5,425L197.5,415C197.5,413.619293,198.619293,412.5,200,412.5C201.380707,412.5,202.5,413.619293,202.5,415L202.5,425C202.5,426.380707,201.380707,427.5,200,427.5C198.619293,427.5,197.5,426.380707,197.5,425z"/>
    <path transform="matrix(1,0,0,-1,-1740,730)" style="stroke:#000000;stroke-width:0.05mm;fill:none" d="M237.5,425L237.5,415C237.5,413.619293,238.619293,412.5,240,412.5C241.380707,412.5,242.5,413.619293,242.5,415L242.5,425C242.5,426.380707,241.380707,427.5,240,427.5C238.619293,427.5,237.5,426.380707,237.5,425z"/>
    <path transform="matrix(1,0,0,-1,-1740,730)" style="stroke:#000000;stroke-width:0.05mm;fill:none" d="M277.5,425L277.5,415C277.5,413.619293,278.619293,412.5,280,412.5C281.380707,412.5,282.5,413.619293,282.5,415L282.5,425C282.5,426.380707,281.380707,427.5,280,427.5C278.619293,427.5,277.5,426.380707,277.5,425z"/>
    <path transform="matrix(1,0,0,-1,-1740,730)" style="stroke:#000000;stroke-width:0.05mm;fill:none" d="M317.5,425L317.5,415C317.5,413.619293,318.619293,412.5,320,412.5C321.380707,412.5,322.5,413.619293,322.5,415L322.5,425C322.5,426.380707,321.380707,427.5,320,427.5C318.619293,427.5,317.5,426.380707,317.5,425z"/>
    <path transform="matrix(1,0,0,-1,-1740,730)" style="stroke:#000000;stroke-width:0.05mm;fill:none" d="M37.5,385L37.5,375C37.5,373.619293,38.619289,372.5,40,372.5C41.380714,372.5,42.5,373.619293,42.5,375L42.5,385C42.5,386.380707,41.380711,387.5,40,387.5C38.619289,387.5,37.5,386.380707,37.5,385z"/>
    <path transform="matrix(1,0,0,-1,-1740,730)" style="stroke:#000000;stroke-width:0.05mm;fill:none" d="M17.5,405L17.5,395C17.5,393.619293,18.619289,392.5,20,392.5C21.380713,392.5,22.5,393.619293,22.5,395L22.5,405C22.5,406.380707,21.380713,407.5,20,407.5C18.619287,407.5,17.5,406.380707,17.5,405z"/>
    <path transform="matrix(1,0,0,-1,-1740,730)" style="stroke:#000000;stroke-width:0.05mm;fill:none" d="M57.5,405L57.5,395C57.5,393.619293,58.619289,392.5,60,392.5C61.380714,392.5,62.5,393.619293,62.5,395L62.5,405C62.5,406.380707,61.380711,407.5,60,407.5C58.619289,407.5,57.5,406.380707,57.5,405z"/>
    <path transform="matrix(1,0,0,-1,-1740,730)" style="stroke:#000000;stroke-width:0.05mm;fill:none" d="M97.5,405L97.5,395C97.5,393.619293,98.619286,392.5,100,392.5C101.380714,392.5,102.5,393.619293,102.5,395L102.5,405C102.5,406.380707,101.380714,407.5,100,407.5C98.619286,407.5,97.5,406.380707,97.5,405z"/>
    <path transform="matrix(1,0,0,-1,-1740,730)" style="stroke:#000000;stroke-width:0.05mm;fill:none" d="M137.5,405L137.5,395C137.5,393.619293,138.619293,392.5,140,392.5C141.380707,392.5,142.5,393.619293,142.5,395L142.5,405C142.5,406.380707,141.380707,407.5,140,407.5C138.619293,407.5,137.5,406.380707,137.5,405z"/>
    <path transform="matrix(1,0,0,-1,-1740,730)" style="stroke:#000000;stroke-width:0.05mm;fill:none" d="M177.5,405L177.5,395C177.5,393.619293,178.619293,392.5,180,392.5C181.380707,392.5,182.5,393.619293,182.5,395L182.5,405C182.5,406.380707,181.380707,407.5,180,407.5C178.619293,407.5,177.5,406.380707,177.5,405z"/>
    <path transform="matrix(1,0,0,-1,-1740,730)" style="stroke:#000000;stroke-width:0.05mm;fill:none" d="M217.5,405L217.5,395C217.5,393.619293,218.619293,392.5,220,392.5C221.380707,392.5,222.5,393.619293,222.5,395L222.5,405C222.5,406.380707,221.380707,407.5,220,407.5C218.619293,407.5,217.5,406.380707,217.5,405z"/>
    <path transform="matrix(1,0,0,-1,-1740,730)" style="stroke:#000000;stroke-width:0.05mm;fill:none" d="M257.5,405L257.5,395C257.5,393.619293,258.619293,392.5,260,392.5C261.380707,392.5,262.5,393.619293,262.5,395L262.5,405C262.5,406.380707,261.380707,407.5,260,407.5C258.619293,407.5,257.5,406.380707,257.5,405z"/>
    <path transform="matrix(1,0,0,-1,-1740,730)" style="stroke:#000000;stroke-width:0.05mm;fill:none" d="M297.5,405L297.5,395C297.5,393.619293,298.619293,392.5,300,392.5C301.380707,392.5,302.5,393.619293,302.5,395L302.5,405C302.5,406.380707,301.380707,407.5,300,407.5C298.619293,407.5,297.5,406.380707,297.5,405z"/>
    <path transform="matrix(1,0,0,-1,-1740,730)" style="stroke:#000000;stroke-width:0.05mm;fill:none" d="M337.5,405L337.5,395C337.5,393.619293,338.619293,392.5,340,392.5C341.380707,392.5,342.5,393.619293,342.5,395L342.5,405C342.5,406.380707,341.380707,407.5,340,407.5C338.619293,407.5,337.5,406.380707,337.5,405z"/>
    <path transform="matrix(1,0,0,-1,-1740,730)" style="stroke:#000000;stroke-width:0.05mm;fill:none" d="M77.5,385L77.5,375C77.5,373.619293,78.619286,372.5,80,372.5C81.380714,372.5,82.5,373.619293,82.5,375L82.5,385C82.5,386.380707,81.380714,387.5,80,387.5C78.619286,387.5,77.5,386.380707,77.5,385z"/>
    <path transform="matrix(1,0,0,-1,-1740,730)" style="stroke:#000000;stroke-width:0.05mm;fill:none" d="M117.5,385L117.5,375C117.5,373.619293,118.619286,372.5,120,372.5C121.380714,372.5,122.5,373.619293,122.5,375L122.5,385C122.5,386.380707,121.380714,387.5,120,387.5C118.619286,387.5,117.5,386.380707,117.5,385z"/>
    <path transform="matrix(1,0,0,-1,-1740,730)" style="stroke:#000000;stroke-width:0.05mm;fill:none" d="M157.5,385L157.5,375C157.5,373.619293,158.619293,372.5,160,372.5C161.380707,372.5,162.5,373.619293,162.5,375L162.5,385C162.5,386.380707,161.380707,387.5,160,387.5C158.619293,387.5,157.5,386.380707,157.5,385z"/>
    <path transform="matrix(1,0,0,-1,-1740,730)" style="stroke:#000000;stroke-width:0.05mm;fill:none" d="M197.5,385L197.5,375C197.5,373.619293,198.619293,372.5,200,372.5C201.380707,372.5,202.5,373.619293,202.5,375L202.5,385C202.5,386.380707,201.380707,387.5,200,387.5C198.619293,387.5,197.5,386.380707,197.5,385z"/>
    <path transform="matrix(1,0,0,-1,-1740,730)" style="stroke:#000000;stroke-width:0.05mm;fill:none" d="M237.5,385L237.5,375C237.5,373.619293,238.619293,372.5,240,372.5C241.380707,372.5,242.5,373.619293,242.5,375L242.5,385C242.5,386.380707,241.380707,387.5,240,387.5C238.619293,387.5,237.5,386.380707,237.5,385z"/>
    <path transform="matrix(1,0,0,-1,-1740,730)" style="stroke:#000000;stroke-width:0.05mm;fill:none" d="M277.5,385L277.5,375C277.5,373.619293,278.619293,372.5,280,372.5C281.380707,372.5,282.5,373.619293,282.5,375L282.5,385C282.5,386.380707,281.380707,387.5,280,387.5C278.619293,387.5,277.5,386.380707,277.5,385z"/>
    <path transform="matrix(1,0,0,-1,-1740,730)" style="stroke:#000000;stroke-width:0.05mm;fill:none" d="M317.5,385L317.5,375C317.5,373.619293,318.619293,372.5,320,372.5C321.380707,372.5,322.5,373.619293,322.5,375L322.5,385C322.5,386.380707,321.380707,387.5,320,387.5C318.619293,387.5,317.5,386.380707,317.5,385z"/>
    <path transform="matrix(1,0,0,-1,-1740,730)" style="stroke:#000000;stroke-width:0.05mm;fill:none" d="M37.5,345L37.5,335C37.5,333.619293,38.619289,332.5,40,332.5C41.380714,332.5,42.5,333.619293,42.5,335L42.5,345C42.5,346.380707,41.380711,347.5,40,347.5C38.619289,347.5,37.5,346.380707,37.5,345z"/>
    <path transform="matrix(1,0,0,-1,-1740,730)" style="stroke:#000000;stroke-width:0.05mm;fill:none" d="M17.5,365L17.5,355C17.5,353.619293,18.619289,352.5,20,352.5C21.380713,352.5,22.5,353.619293,22.5,355L22.5,365C22.5,366.380707,21.380713,367.5,20,367.5C18.619287,367.5,17.5,366.380707,17.5,365z"/>
    <path transform="matrix(1,0,0,-1,-1740,730)" style="stroke:#000000;stroke-width:0.05mm;fill:none" d="M57.5,365L57.5,355C57.5,353.619293,58.619289,352.5,60,352.5C61.380714,352.5,62.5,353.619293,62.5,355L62.5,365C62.5,366.380707,61.380711,367.5,60,367.5C58.619289,367.5,57.5,366.380707,57.5,365z"/>
    <path transform="matrix(1,0,0,-1,-1740,730)" style="stroke:#000000;stroke-width:0.05mm;fill:none" d="M97.5,365L97.5,355C97.5,353.619293,98.619286,352.5,100,352.5C101.380714,352.5,102.5,353.619293,102.5,355L102.5,365C102.5,366.380707,101.380714,367.5,100,367.5C98.619286,367.5,97.5,366.380707,97.5,365z"/>
    <path transform="matrix(1,0,0,-1,-1740,730)" style="stroke:#000000;stroke-width:0.05mm;fill:none" d="M137.5,365L137.5,355C137.5,353.619293,138.619293,352.5,140,352.5C141.380707,352.5,142.5,353.619293,142.5,355L142.5,365C142.5,366.380707,141.380707,367.5,140,367.5C138.619293,367.5,137.5,366.380707,137.5,365z"/>
    <path transform="matrix(1,0,0,-1,-1740,730)" style="stroke:#000000;stroke-width:0.05mm;fill:none" d="M177.5,365L177.5,355C177.5,353.619293,178.619293,352.5,180,352.5C181.380707,352.5,182.5,353.619293,182.5,355L182.5,365C182.5,366.380707,181.380707,367.5,180,367.5C178.619293,367.5,177.5,366.380707,177.5,365z"/>
    <path transform="matrix(1,0,0,-1,-1740,730)" style="stroke:#000000;stroke-width:0.05mm;fill:none" d="M217.5,365L217.5,355C217.5,353.619293,218.619293,352.5,220,352.5C221.380707,352.5,222.5,353.619293,222.5,355L222.5,365C222.5,366.380707,221.380707,367.5,220,367.5C218.619293,367.5,217.5,366.380707,217.5,365z"/>
    <path transform="matrix(1,0,0,-1,-1740,730)" style="stroke:#000000;stroke-width:0.05mm;fill:none" d="M257.5,365L257.5,355C257.5,353.619293,258.619293,352.5,260,352.5C261.380707,352.5,262.5,353.619293,262.5,355L262.5,365C262.5,366.380707,261.380707,367.5,260,367.5C258.619293,367.5,257.5,366.380707,257.5,365z"/>
    <path transform="matrix(1,0,0,-1,-1740,730)" style="stroke:#000000;stroke-width:0.05mm;fill:none" d="M297.5,365L297.5,355C297.5,353.619293,298.619293,352.5,300,352.5C301.380707,352.5,302.5,353.619293,302.5,355L302.5,365C302.5,366.380707,301.380707,367.5,300,367.5C298.619293,367.5,297.5,366.380707,297.5,365z"/>
    <path transform="matrix(1,0,0,-1,-1740,730)" style="stroke:#000000;stroke-width:0.05mm;fill:none" d="M337.5,365L337.5,355C337.5,353.619293,338.619293,352.5,340,352.5C341.380707,352.5,342.5,353.619293,342.5,355L342.5,365C342.5,366.380707,341.380707,367.5,340,367.5C338.619293,367.5,337.5,366.380707,337.5,365z"/>
    <path transform="matrix(1,0,0,-1,-1740,730)" style="stroke:#000000;stroke-width:0.05mm;fill:none" d="M77.5,345L77.5,335C77.5,333.619293,78.619286,332.5,80,332.5C81.380714,332.5,82.5,333.619293,82.5,335L82.5,345C82.5,346.380707,81.380714,347.5,80,347.5C78.619286,347.5,77.5,346.380707,77.5,345z"/>
    <path transform="matrix(1,0,0,-1,-1740,730)" style="stroke:#000000;stroke-width:0.05mm;fill:none" d="M117.5,345L117.5,335C117.5,333.619293,118.619286,332.5,120,332.5C121.380714,332.5,122.5,333.619293,122.5,335L122.5,345C122.5,346.380707,121.380714,347.5,120,347.5C118.619286,347.5,117.5,346.380707,117.5,345z"/>
    <path transform="matrix(1,0,0,-1,-1740,730)" style="stroke:#000000;stroke-width:0.05mm;fill:none" d="M157.5,345L157.5,335C157.5,333.619293,158.619293,332.5,160,332.5C161.380707,332.5,162.5,333.619293,162.5,335L162.5,345C162.5,346.380707,161.380707,347.5,160,347.5C158.619293,347.5,157.5,346.380707,157.5,345z"/>
    <path transform="matrix(1,0,0,-1,-1740,730)" style="stroke:#000000;stroke-width:0.05mm;fill:none" d="M197.5,345L197.5,335C197.5,333.619293,198.619293,332.5,200,332.5C201.380707,332.5,202.5,333.619293,202.5,335L202.5,345C202.5,346.380707,201.380707,347.5,200,347.5C198.619293,347.5,197.5,346.380707,197.5,345z"/>
    <path transform="matrix(1,0,0,-1,-1740,730)" style="stroke:#000000;stroke-width:0.05mm;fill:none" d="M237.5,345L237.5,335C237.5,333.619293,238.619293,332.5,240,332.5C241.380707,332.5,242.5,333.619293,242.5,335L242.5,345C242.5,346.380707,241.380707,347.5,240,347.5C238.619293,347.5,237.5,346.380707,237.5,345z"/>
    <path transform="matrix(1,0,0,-1,-1740,730)" style="stroke:#000000;stroke-width:0.05mm;fill:none" d="M277.5,345L277.5,335C277.5,333.619293,278.619293,332.5,280,332.5C281.380707,332.5,282.5,333.619293,282.5,335L282.5,345C282.5,346.380707,281.380707,347.5,280,347.5C278.619293,347.5,277.5,346.380707,277.5,345z"/>
    <path transform="matrix(1,0,0,-1,-1740,730)" style="stroke:#000000;stroke-width:0.05mm;fill:none" d="M317.5,345L317.5,335C317.5,333.619293,318.619293,332.5,320,332.5C321.380707,332.5,322.5,333.619293,322.5,335L322.5,345C322.5,346.380707,321.380707,347.5,320,347.5C318.619293,347.5,317.5,346.380707,317.5,345z"/>
    <path transform="matrix(1,0,0,-1,-1740,730)" style="stroke:#000000;stroke-width:0.05mm;fill:none" d="M37.5,305L37.5,295C37.5,293.619293,38.619289,292.5,40,292.5C41.380714,292.5,42.5,293.619293,42.5,295L42.5,305C42.5,306.380707,41.380711,307.5,40,307.5C38.619289,307.5,37.5,306.380707,37.5,305z"/>
    <path transform="matrix(1,0,0,-1,-1740,730)" style="stroke:#000000;stroke-width:0.05mm;fill:none" d="M17.5,325L17.5,315C17.5,313.619293,18.619289,312.5,20,312.5C21.380713,312.5,22.5,313.619293,22.5,315L22.5,325C22.5,326.380707,21.380713,327.5,20,327.5C18.619287,327.5,17.5,326.380707,17.5,325z"/>
    <path transform="matrix(1,0,0,-1,-1740,730)" style="stroke:#000000;stroke-width:0.05mm;fill:none" d="M57.5,325L57.5,315C57.5,313.619293,58.619289,312.5,60,312.5C61.380714,312.5,62.5,313.619293,62.5,315L62.5,325C62.5,326.380707,61.380711,327.5,60,327.5C58.619289,327.5,57.5,326.380707,57.5,325z"/>
    <path transform="matrix(1,0,0,-1,-1740,730)" style="stroke:#000000;stroke-width:0.05mm;fill:none" d="M97.5,325L97.5,315C97.5,313.619293,98.619286,312.5,100,312.5C101.380714,312.5,102.5,313.619293,102.5,315L102.5,325C102.5,326.380707,101.380714,327.5,100,327.5C98.619286,327.5,97.5,326.380707,97.5,325z"/>
    <path transform="matrix(1,0,0,-1,-1740,730)" style="stroke:#000000;stroke-width:0.05mm;fill:none" d="M137.5,325L137.5,315C137.5,313.619293,138.619293,312.5,140,312.5C141.380707,312.5,142.5,313.619293,142.5,315L142.5,325C142.5,326.380707,141.380707,327.5,140,327.5C138.619293,327.5,137.5,326.380707,137.5,325z"/>
    <path transform="matrix(1,0,0,-1,-1740,730)" style="stroke:#000000;stroke-width:0.05mm;fill:none" d="M177.5,325L177.5,315C177.5,313.619293,178.619293,312.5,180,312.5C181.380707,312.5,182.5,313.619293,182.5,315L182.5,325C182.5,326.380707,181.380707,327.5,180,327.5C178.619293,327.5,177.5,326.380707,177.5,325z"/>
    <path transform="matrix(1,0,0,-1,-1740,730)" style="stroke:#000000;stroke-width:0.05mm;fill:none" d="M217.5,325L217.5,315C217.5,313.619293,218.619293,312.5,220,312.5C221.380707,312.5,222.5,313.619293,222.5,315L222.5,325C222.5,326.380707,221.380707,327.5,220,327.5C218.619293,327.5,217.5,326.380707,217.5,325z"/>
    <path transform="matrix(1,0,0,-1,-1740,730)" style="stroke:#000000;stroke-width:0.05mm;fill:none" d="M257.5,325L257.5,315C257.5,313.619293,258.619293,312.5,260,312.5C261.380707,312.5,262.5,313.619293,262.5,315L262.5,325C262.5,326.380707,261.380707,327.5,260,327.5C258.619293,327.5,257.5,326.380707,257.5,325z"/>
    <path transform="matrix(1,0,0,-1,-1740,730)" style="stroke:#000000;stroke-width:0.05mm;fill:none" d="M297.5,325L297.5,315C297.5,313.619293,298.619293,312.5,300,312.5C301.380707,312.5,302.5,313.619293,302.5,315L302.5,325C302.5,326.380707,301.380707,327.5,300,327.5C298.619293,327.5,297.5,326.380707,297.5,325z"/>
    <path transform="matrix(1,0,0,-1,-1740,730)" style="stroke:#000000;stroke-width:0.05mm;fill:none" d="M337.5,325L337.5,315C337.5,313.619293,338.619293,312.5,340,312.5C341.380707,312.5,342.5,313.619293,342.5,315L342.5,325C342.5,326.380707,341.380707,327.5,340,327.5C338.619293,327.5,337.5,326.380707,337.5,325z"/>
    <path transform="matrix(1,0,0,-1,-1740,730)" style="stroke:#000000;stroke-width:0.05mm;fill:none" d="M77.5,305L77.5,295C77.5,293.619293,78.619286,292.5,80,292.5C81.380714,292.5,82.5,293.619293,82.5,295L82.5,305C82.5,306.380707,81.380714,307.5,80,307.5C78.619286,307.5,77.5,306.380707,77.5,305z"/>
    <path transform="matrix(1,0,0,-1,-1740,730)" style="stroke:#000000;stroke-width:0.05mm;fill:none" d="M117.5,305L117.5,295C117.5,293.619293,118.619286,292.5,120,292.5C121.380714,292.5,122.5,293.619293,122.5,295L122.5,305C122.5,306.380707,121.380714,307.5,120,307.5C118.619286,307.5,117.5,306.380707,117.5,305z"/>
    <path transform="matrix(1,0,0,-1,-1740,730)" style="stroke:#000000;stroke-width:0.05mm;fill:none" d="M157.5,305L157.5,295C157.5,293.619293,158.619293,292.5,160,292.5C161.380707,292.5,162.5,293.619293,162.5,295L162.5,305C162.5,306.380707,161.380707,307.5,160,307.5C158.619293,307.5,157.5,306.380707,157.5,305z"/>
    <path transform="matrix(1,0,0,-1,-1740,730)" style="stroke:#000000;stroke-width:0.05mm;fill:none" d="M197.5,305L197.5,295C197.5,293.619293,198.619293,292.5,200,292.5C201.380707,292.5,202.5,293.619293,202.5,295L202.5,305C202.5,306.380707,201.380707,307.5,200,307.5C198.619293,307.5,197.5,306.380707,197.5,305z"/>
    <path transform="matrix(1,0,0,-1,-1740,730)" style="stroke:#000000;stroke-width:0.05mm;fill:none" d="M237.5,305L237.5,295C237.5,293.619293,238.619293,292.5,240,292.5C241.380707,292.5,242.5,293.619293,242.5,295L242.5,305C242.5,306.380707,241.380707,307.5,240,307.5C238.619293,307.5,237.5,306.380707,237.5,305z"/>
    <path transform="matrix(1,0,0,-1,-1740,730)" style="stroke:#000000;stroke-width:0.05mm;fill:none" d="M277.5,305L277.5,295C277.5,293.619293,278.619293,292.5,280,292.5C281.380707,292.5,282.5,293.619293,282.5,295L282.5,305C282.5,306.380707,281.380707,307.5,280,307.5C278.619293,307.5,277.5,306.380707,277.5,305z"/>
    <path transform="matrix(1,0,0,-1,-1740,730)" style="stroke:#000000;stroke-width:0.05mm;fill:none" d="M317.5,305L317.5,295C317.5,293.619293,318.619293,292.5,320,292.5C321.380707,292.5,322.5,293.619293,322.5,295L322.5,305C322.5,306.380707,321.380707,307.5,320,307.5C318.619293,307.5,317.5,306.380707,317.5,305z"/>
    <path transform="matrix(1,0,0,-1,-1740,730)" style="stroke:#000000;stroke-width:0.05mm;fill:none" d="M37.5,265L37.5,255C37.5,253.619293,38.619289,252.5,40,252.5C41.380714,252.5,42.5,253.619293,42.5,255L42.5,265C42.5,266.380707,41.380711,267.5,40,267.5C38.619289,267.5,37.5,266.380707,37.5,265z"/>
    <path transform="matrix(1,0,0,-1,-1740,730)" style="stroke:#000000;stroke-width:0.05mm;fill:none" d="M17.5,285L17.5,275C17.5,273.619293,18.619289,272.5,20,272.5C21.380713,272.5,22.5,273.619293,22.5,275L22.5,285C22.5,286.380707,21.380713,287.5,20,287.5C18.619287,287.5,17.5,286.380707,17.5,285z"/>
    <path transform="matrix(1,0,0,-1,-1740,730)" style="stroke:#000000;stroke-width:0.05mm;fill:none" d="M57.5,285L57.5,275C57.5,273.619293,58.619289,272.5,60,272.5C61.380714,272.5,62.5,273.619293,62.5,275L62.5,285C62.5,286.380707,61.380711,287.5,60,287.5C58.619289,287.5,57.5,286.380707,57.5,285z"/>
    <path transform="matrix(1,0,0,-1,-1740,730)" style="stroke:#000000;stroke-width:0.05mm;fill:none" d="M97.5,285L97.5,275C97.5,273.619293,98.619286,272.5,100,272.5C101.380714,272.5,102.5,273.619293,102.5,275L102.5,285C102.5,286.380707,101.380714,287.5,100,287.5C98.619286,287.5,97.5,286.380707,97.5,285z"/>
    <path transform="matrix(1,0,0,-1,-1740,730)" style="stroke:#000000;stroke-width:0.05mm;fill:none" d="M137.5,285L137.5,275C137.5,273.619293,138.619293,272.5,140,272.5C141.380707,272.5,142.5,273.619293,142.5,275L142.5,285C142.5,286.380707,141.380707,287.5,140,287.5C138.619293,287.5,137.5,286.380707,137.5,285z"/>
    <path transform="matrix(1,0,0,-1,-1740,730)" style="stroke:#000000;stroke-width:0.05mm;fill:none" d="M177.5,285L177.5,275C177.5,273.619293,178.619293,272.5,180,272.5C181.380707,272.5,182.5,273.619293,182.5,275L182.5,285C182.5,286.380707,181.380707,287.5,180,287.5C178.619293,287.5,177.5,286.380707,177.5,285z"/>
    <path transform="matrix(1,0,0,-1,-1740,730)" style="stroke:#000000;stroke-width:0.05mm;fill:none" d="M217.5,285L217.5,275C217.5,273.619293,218.619293,272.5,220,272.5C221.380707,272.5,222.5,273.619293,222.5,275L222.5,285C222.5,286.380707,221.380707,287.5,220,287.5C218.619293,287.5,217.5,286.380707,217.5,285z"/>
    <path transform="matrix(1,0,0,-1,-1740,730)" style="stroke:#000000;stroke-width:0.05mm;fill:none" d="M257.5,285L257.5,275C257.5,273.619293,258.619293,272.5,260,272.5C261.380707,272.5,262.5,273.619293,262.5,275L262.5,285C262.5,286.380707,261.380707,287.5,260,287.5C258.619293,287.5,257.5,286.380707,257.5,285z"/>
    <path transform="matrix(1,0,0,-1,-1740,730)" style="stroke:#000000;stroke-width:0.05mm;fill:none" d="M297.5,285L297.5,275C297.5,273.619293,298.619293,272.5,300,272.5C301.380707,272.5,302.5,273.619293,302.5,275L302.5,285C302.5,286.380707,301.380707,287.5,300,287.5C298.619293,287.5,297.5,286.380707,297.5,285z"/>
    <path transform="matrix(1,0,0,-1,-1740,730)" style="stroke:#000000;stroke-width:0.05mm;fill:none" d="M337.5,285L337.5,275C337.5,273.619293,338.619293,272.5,340,272.5C341.380707,272.5,342.5,273.619293,342.5,275L342.5,285C342.5,286.380707,341.380707,287.5,340,287.5C338.619293,287.5,337.5,286.380707,337.5,285z"/>
    <path transform="matrix(1,0,0,-1,-1740,730)" style="stroke:#000000;stroke-width:0.05mm;fill:none" d="M77.5,265L77.5,255C77.5,253.619293,78.619286,252.5,80,252.5C81.380714,252.5,82.5,253.619293,82.5,255L82.5,265C82.5,266.380707,81.380714,267.5,80,267.5C78.619286,267.5,77.5,266.380707,77.5,265z"/>
    <path transform="matrix(1,0,0,-1,-1740,730)" style="stroke:#000000;stroke-width:0.05mm;fill:none" d="M117.5,265L117.5,255C117.5,253.619293,118.619286,252.5,120,252.5C121.380714,252.5,122.5,253.619293,122.5,255L122.5,265C122.5,266.380707,121.380714,267.5,120,267.5C118.619286,267.5,117.5,266.380707,117.5,265z"/>
    <path transform="matrix(1,0,0,-1,-1740,730)" style="stroke:#000000;stroke-width:0.05mm;fill:none" d="M157.5,265L157.5,255C157.5,253.619293,158.619293,252.5,160,252.5C161.380707,252.5,162.5,253.619293,162.5,255L162.5,265C162.5,266.380707,161.380707,267.5,160,267.5C158.619293,267.5,157.5,266.380707,157.5,265z"/>
    <path transform="matrix(1,0,0,-1,-1740,730)" style="stroke:#000000;stroke-width:0.05mm;fill:none" d="M197.5,265L197.5,255C197.5,253.619293,198.619293,252.5,200,252.5C201.380707,252.5,202.5,253.619293,202.5,255L202.5,265C202.5,266.380707,201.380707,267.5,200,267.5C198.619293,267.5,197.5,266.380707,197.5,265z"/>
    <path transform="matrix(1,0,0,-1,-1740,730)" style="stroke:#000000;stroke-width:0.05mm;fill:none" d="M237.5,265L237.5,255C237.5,253.619293,238.619293,252.5,240,252.5C241.380707,252.5,242.5,253.619293,242.5,255L242.5,265C242.5,266.380707,241.380707,267.5,240,267.5C238.619293,267.5,237.5,266.380707,237.5,265z"/>
    <path transform="matrix(1,0,0,-1,-1740,730)" style="stroke:#000000;stroke-width:0.05mm;fill:none" d="M277.5,265L277.5,255C277.5,253.619293,278.619293,252.5,280,252.5C281.380707,252.5,282.5,253.619293,282.5,255L282.5,265C282.5,266.380707,281.380707,267.5,280,267.5C278.619293,267.5,277.5,266.380707,277.5,265z"/>
    <path transform="matrix(1,0,0,-1,-1740,730)" style="stroke:#000000;stroke-width:0.05mm;fill:none" d="M317.5,265L317.5,255C317.5,253.619293,318.619293,252.5,320,252.5C321.380707,252.5,322.5,253.619293,322.5,255L322.5,265C322.5,266.380707,321.380707,267.5,320,267.5C318.619293,267.5,317.5,266.380707,317.5,265z"/>
    <path transform="matrix(1,0,0,-1,-1740,730)" style="stroke:#000000;stroke-width:0.05mm;fill:none" d="M37.5,225L37.5,215C37.5,213.619293,38.619289,212.5,40,212.5C41.380714,212.5,42.5,213.619293,42.5,215L42.5,225C42.5,226.380707,41.380711,227.5,40,227.5C38.619289,227.5,37.5,226.380707,37.5,225z"/>
    <path transform="matrix(1,0,0,-1,-1740,730)" style="stroke:#000000;stroke-width:0.05mm;fill:none" d="M17.5,245L17.5,235C17.5,233.619293,18.619289,232.5,20,232.5C21.380713,232.5,22.5,233.619293,22.5,235L22.5,245C22.5,246.380707,21.380713,247.5,20,247.5C18.619287,247.5,17.5,246.380707,17.5,245z"/>
    <path transform="matrix(1,0,0,-1,-1740,730)" style="stroke:#000000;stroke-width:0.05mm;fill:none" d="M57.5,245L57.5,235C57.5,233.619293,58.619289,232.5,60,232.5C61.380714,232.5,62.5,233.619293,62.5,235L62.5,245C62.5,246.380707,61.380711,247.5,60,247.5C58.619289,247.5,57.5,246.380707,57.5,245z"/>
    <path transform="matrix(1,0,0,-1,-1740,730)" style="stroke:#000000;stroke-width:0.05mm;fill:none" d="M97.5,245L97.5,235C97.5,233.619293,98.619286,232.5,100,232.5C101.380714,232.5,102.5,233.619293,102.5,235L102.5,245C102.5,246.380707,101.380714,247.5,100,247.5C98.619286,247.5,97.5,246.380707,97.5,245z"/>
    <path transform="matrix(1,0,0,-1,-1740,730)" style="stroke:#000000;stroke-width:0.05mm;fill:none" d="M137.5,245L137.5,235C137.5,233.619293,138.619293,232.5,140,232.5C141.380707,232.5,142.5,233.619293,142.5,235L142.5,245C142.5,246.380707,141.380707,247.5,140,247.5C138.619293,247.5,137.5,246.380707,137.5,245z"/>
    <path transform="matrix(1,0,0,-1,-1740,730)" style="stroke:#000000;stroke-width:0.05mm;fill:none" d="M177.5,245L177.5,235C177.5,233.619293,178.619293,232.5,180,232.5C181.380707,232.5,182.5,233.619293,182.5,235L182.5,245C182.5,246.380707,181.380707,247.5,180,247.5C178.619293,247.5,177.5,246.380707,177.5,245z"/>
    <path transform="matrix(1,0,0,-1,-1740,730)" style="stroke:#000000;stroke-width:0.05mm;fill:none" d="M217.5,245L217.5,235C217.5,233.619293,218.619293,232.5,220,232.5C221.380707,232.5,222.5,233.619293,222.5,235L222.5,245C222.5,246.380707,221.380707,247.5,220,247.5C218.619293,247.5,217.5,246.380707,217.5,245z"/>
    <path transform="matrix(1,0,0,-1,-1740,730)" style="stroke:#000000;stroke-width:0.05mm;fill:none" d="M257.5,245L257.5,235C257.5,233.619293,258.619293,232.5,260,232.5C261.380707,232.5,262.5,233.619293,262.5,235L262.5,245C262.5,246.380707,261.380707,247.5,260,247.5C258.619293,247.5,257.5,246.380707,257.5,245z"/>
    <path transform="matrix(1,0,0,-1,-1740,730)" style="stroke:#000000;stroke-width:0.05mm;fill:none" d="M297.5,245L297.5,235C297.5,233.619293,298.619293,232.5,300,232.5C301.380707,232.5,302.5,233.619293,302.5,235L302.5,245C302.5,246.380707,301.380707,247.5,300,247.5C298.619293,247.5,297.5,246.380707,297.5,245z"/>
    <path transform="matrix(1,0,0,-1,-1740,730)" style="stroke:#000000;stroke-width:0.05mm;fill:none" d="M337.5,245L337.5,235C337.5,233.619293,338.619293,232.5,340,232.5C341.380707,232.5,342.5,233.619293,342.5,235L342.5,245C342.5,246.380707,341.380707,247.5,340,247.5C338.619293,247.5,337.5,246.380707,337.5,245z"/>
    <path transform="matrix(1,0,0,-1,-1740,730)" style="stroke:#000000;stroke-width:0.05mm;fill:none" d="M77.5,225L77.5,215C77.5,213.619293,78.619286,212.5,80,212.5C81.380714,212.5,82.5,213.619293,82.5,215L82.5,225C82.5,226.380707,81.380714,227.5,80,227.5C78.619286,227.5,77.5,226.380707,77.5,225z"/>
    <path transform="matrix(1,0,0,-1,-1740,730)" style="stroke:#000000;stroke-width:0.05mm;fill:none" d="M117.5,225L117.5,215C117.5,213.619293,118.619286,212.5,120,212.5C121.380714,212.5,122.5,213.619293,122.5,215L122.5,225C122.5,226.380707,121.380714,227.5,120,227.5C118.619286,227.5,117.5,226.380707,117.5,225z"/>
    <path transform="matrix(1,0,0,-1,-1740,730)" style="stroke:#000000;stroke-width:0.05mm;fill:none" d="M157.5,225L157.5,215C157.5,213.619293,158.619293,212.5,160,212.5C161.380707,212.5,162.5,213.619293,162.5,215L162.5,225C162.5,226.380707,161.380707,227.5,160,227.5C158.619293,227.5,157.5,226.380707,157.5,225z"/>
    <path transform="matrix(1,0,0,-1,-1740,730)" style="stroke:#000000;stroke-width:0.05mm;fill:none" d="M197.5,225L197.5,215C197.5,213.619293,198.619293,212.5,200,212.5C201.380707,212.5,202.5,213.619293,202.5,215L202.5,225C202.5,226.380707,201.380707,227.5,200,227.5C198.619293,227.5,197.5,226.380707,197.5,225z"/>
    <path transform="matrix(1,0,0,-1,-1740,730)" style="stroke:#000000;stroke-width:0.05mm;fill:none" d="M237.5,225L237.5,215C237.5,213.619293,238.619293,212.5,240,212.5C241.380707,212.5,242.5,213.619293,242.5,215L242.5,225C242.5,226.380707,241.380707,227.5,240,227.5C238.619293,227.5,237.5,226.380707,237.5,225z"/>
    <path transform="matrix(1,0,0,-1,-1740,730)" style="stroke:#000000;stroke-width:0.05mm;fill:none" d="M277.5,225L277.5,215C277.5,213.619293,278.619293,212.5,280,212.5C281.380707,212.5,282.5,213.619293,282.5,215L282.5,225C282.5,226.380707,281.380707,227.5,280,227.5C278.619293,227.5,277.5,226.380707,277.5,225z"/>
    <path transform="matrix(1,0,0,-1,-1740,730)" style="stroke:#000000;stroke-width:0.05mm;fill:none" d="M317.5,225L317.5,215C317.5,213.619293,318.619293,212.5,320,212.5C321.380707,212.5,322.5,213.619293,322.5,215L322.5,225C322.5,226.380707,321.380707,227.5,320,227.5C318.619293,227.5,317.5,226.380707,317.5,225z"/>
    <path transform="matrix(1,0,0,-1,-1740,730)" style="stroke:#000000;stroke-width:0.05mm;fill:none" d="M37.5,185L37.5,175C37.5,173.619293,38.619289,172.5,40,172.5C41.380714,172.5,42.5,173.619293,42.5,175L42.5,185C42.5,186.380707,41.380711,187.5,40,187.5C38.619289,187.5,37.5,186.380707,37.5,185z"/>
    <path transform="matrix(1,0,0,-1,-1740,730)" style="stroke:#000000;stroke-width:0.05mm;fill:none" d="M17.5,205L17.5,195C17.5,193.619293,18.619289,192.5,20,192.5C21.380713,192.5,22.5,193.619293,22.5,195L22.5,205C22.5,206.380707,21.380713,207.5,20,207.5C18.619287,207.5,17.5,206.380707,17.5,205z"/>
    <path transform="matrix(1,0,0,-1,-1740,730)" style="stroke:#000000;stroke-width:0.05mm;fill:none" d="M57.5,205L57.5,195C57.5,193.619293,58.619289,192.5,60,192.5C61.380714,192.5,62.5,193.619293,62.5,195L62.5,205C62.5,206.380707,61.380711,207.5,60,207.5C58.619289,207.5,57.5,206.380707,57.5,205z"/>
    <path transform="matrix(1,0,0,-1,-1740,730)" style="stroke:#000000;stroke-width:0.05mm;fill:none" d="M97.5,205L97.5,195C97.5,193.619293,98.619286,192.5,100,192.5C101.380714,192.5,102.5,193.619293,102.5,195L102.5,205C102.5,206.380707,101.380714,207.5,100,207.5C98.619286,207.5,97.5,206.380707,97.5,205z"/>
    <path transform="matrix(1,0,0,-1,-1740,730)" style="stroke:#000000;stroke-width:0.05mm;fill:none" d="M137.5,205L137.5,195C137.5,193.619293,138.619293,192.5,140,192.5C141.380707,192.5,142.5,193.619293,142.5,195L142.5,205C142.5,206.380707,141.380707,207.5,140,207.5C138.619293,207.5,137.5,206.380707,137.5,205z"/>
    <path transform="matrix(1,0,0,-1,-1740,730)" style="stroke:#000000;stroke-width:0.05mm;fill:none" d="M177.5,205L177.5,195C177.5,193.619293,178.619293,192.5,180,192.5C181.380707,192.5,182.5,193.619293,182.5,195L182.5,205C182.5,206.380707,181.380707,207.5,180,207.5C178.619293,207.5,177.5,206.380707,177.5,205z"/>
    <path transform="matrix(1,0,0,-1,-1740,730)" style="stroke:#000000;stroke-width:0.05mm;fill:none" d="M217.5,205L217.5,195C217.5,193.619293,218.619293,192.5,220,192.5C221.380707,192.5,222.5,193.619293,222.5,195L222.5,205C222.5,206.380707,221.380707,207.5,220,207.5C218.619293,207.5,217.5,206.380707,217.5,205z"/>
    <path transform="matrix(1,0,0,-1,-1740,730)" style="stroke:#000000;stroke-width:0.05mm;fill:none" d="M257.5,205L257.5,195C257.5,193.619293,258.619293,192.5,260,192.5C261.380707,192.5,262.5,193.619293,262.5,195L262.5,205C262.5,206.380707,261.380707,207.5,260,207.5C258.619293,207.5,257.5,206.380707,257.5,205z"/>
    <path transform="matrix(1,0,0,-1,-1740,730)" style="stroke:#000000;stroke-width:0.05mm;fill:none" d="M297.5,205L297.5,195C297.5,193.619293,298.619293,192.5,300,192.5C301.380707,192.5,302.5,193.619293,302.5,195L302.5,205C302.5,206.380707,301.380707,207.5,300,207.5C298.619293,207.5,297.5,206.380707,297.5,205z"/>
    <path transform="matrix(1,0,0,-1,-1740,730)" style="stroke:#000000;stroke-width:0.05mm;fill:none" d="M337.5,205L337.5,195C337.5,193.619293,338.619293,192.5,340,192.5C341.380707,192.5,342.5,193.619293,342.5,195L342.5,205C342.5,206.380707,341.380707,207.5,340,207.5C338.619293,207.5,337.5,206.380707,337.5,205z"/>
    <path transform="matrix(1,0,0,-1,-1740,730)" style="stroke:#000000;stroke-width:0.05mm;fill:none" d="M77.5,185L77.5,175C77.5,173.619293,78.619286,172.5,80,172.5C81.380714,172.5,82.5,173.619293,82.5,175L82.5,185C82.5,186.380707,81.380714,187.5,80,187.5C78.619286,187.5,77.5,186.380707,77.5,185z"/>
    <path transform="matrix(1,0,0,-1,-1740,730)" style="stroke:#000000;stroke-width:0.05mm;fill:none" d="M117.5,185L117.5,175C117.5,173.619293,118.619286,172.5,120,172.5C121.380714,172.5,122.5,173.619293,122.5,175L122.5,185C122.5,186.380707,121.380714,187.5,120,187.5C118.619286,187.5,117.5,186.380707,117.5,185z"/>
    <path transform="matrix(1,0,0,-1,-1740,730)" style="stroke:#000000;stroke-width:0.05mm;fill:none" d="M157.5,185L157.5,175C157.5,173.619293,158.619293,172.5,160,172.5C161.380707,172.5,162.5,173.619293,162.5,175L162.5,185C162.5,186.380707,161.380707,187.5,160,187.5C158.619293,187.5,157.5,186.380707,157.5,185z"/>
    <path transform="matrix(1,0,0,-1,-1740,730)" style="stroke:#000000;stroke-width:0.05mm;fill:none" d="M197.5,185L197.5,175C197.5,173.619293,198.619293,172.5,200,172.5C201.380707,172.5,202.5,173.619293,202.5,175L202.5,185C202.5,186.380707,201.380707,187.5,200,187.5C198.619293,187.5,197.5,186.380707,197.5,185z"/>
    <path transform="matrix(1,0,0,-1,-1740,730)" style="stroke:#000000;stroke-width:0.05mm;fill:none" d="M237.5,185L237.5,175C237.5,173.619293,238.619293,172.5,240,172.5C241.380707,172.5,242.5,173.619293,242.5,175L242.5,185C242.5,186.380707,241.380707,187.5,240,187.5C238.619293,187.5,237.5,186.380707,237.5,185z"/>
    <path transform="matrix(1,0,0,-1,-1740,730)" style="stroke:#000000;stroke-width:0.05mm;fill:none" d="M277.5,185L277.5,175C277.5,173.619293,278.619293,172.5,280,172.5C281.380707,172.5,282.5,173.619293,282.5,175L282.5,185C282.5,186.380707,281.380707,187.5,280,187.5C278.619293,187.5,277.5,186.380707,277.5,185z"/>
    <path transform="matrix(1,0,0,-1,-1740,730)" style="stroke:#000000;stroke-width:0.05mm;fill:none" d="M317.5,185L317.5,175C317.5,173.619293,318.619293,172.5,320,172.5C321.380707,172.5,322.5,173.619293,322.5,175L322.5,185C322.5,186.380707,321.380707,187.5,320,187.5C318.619293,187.5,317.5,186.380707,317.5,185z"/>
    <path transform="matrix(1,0,0,-1,-1740,730)" style="stroke:#000000;stroke-width:0.05mm;fill:none" d="M37.5,145L37.5,135C37.5,133.619293,38.619289,132.5,40,132.5C41.380714,132.5,42.5,133.619293,42.5,135L42.5,145C42.5,146.380707,41.380711,147.5,40,147.5C38.619289,147.5,37.5,146.380707,37.5,145z"/>
    <path transform="matrix(1,0,0,-1,-1740,730)" style="stroke:#000000;stroke-width:0.05mm;fill:none" d="M17.5,165L17.5,155C17.5,153.619293,18.619289,152.5,20,152.5C21.380713,152.5,22.5,153.619293,22.5,155L22.5,165C22.5,166.380707,21.380713,167.5,20,167.5C18.619287,167.5,17.5,166.380707,17.5,165z"/>
    <path transform="matrix(1,0,0,-1,-1740,730)" style="stroke:#000000;stroke-width:0.05mm;fill:none" d="M57.5,165L57.5,155C57.5,153.619293,58.619289,152.5,60,152.5C61.380714,152.5,62.5,153.619293,62.5,155L62.5,165C62.5,166.380707,61.380711,167.5,60,167.5C58.619289,167.5,57.5,166.380707,57.5,165z"/>
    <path transform="matrix(1,0,0,-1,-1740,730)" style="stroke:#000000;stroke-width:0.05mm;fill:none" d="M97.5,165L97.5,155C97.5,153.619293,98.619286,152.5,100,152.5C101.380714,152.5,102.5,153.619293,102.5,155L102.5,165C102.5,166.380707,101.380714,167.5,100,167.5C98.619286,167.5,97.5,166.380707,97.5,165z"/>
    <path transform="matrix(1,0,0,-1,-1740,730)" style="stroke:#000000;stroke-width:0.05mm;fill:none" d="M137.5,165L137.5,155C137.5,153.619293,138.619293,152.5,140,152.5C141.380707,152.5,142.5,153.619293,142.5,155L142.5,165C142.5,166.380707,141.380707,167.5,140,167.5C138.619293,167.5,137.5,166.380707,137.5,165z"/>
    <path transform="matrix(1,0,0,-1,-1740,730)" style="stroke:#000000;stroke-width:0.05mm;fill:none" d="M177.5,165L177.5,155C177.5,153.619293,178.619293,152.5,180,152.5C181.380707,152.5,182.5,153.619293,182.5,155L182.5,165C182.5,166.380707,181.380707,167.5,180,167.5C178.619293,167.5,177.5,166.380707,177.5,165z"/>
    <path transform="matrix(1,0,0,-1,-1740,730)" style="stroke:#000000;stroke-width:0.05mm;fill:none" d="M217.5,165L217.5,155C217.5,153.619293,218.619293,152.5,220,152.5C221.380707,152.5,222.5,153.619293,222.5,155L222.5,165C222.5,166.380707,221.380707,167.5,220,167.5C218.619293,167.5,217.5,166.380707,217.5,165z"/>
    <path transform="matrix(1,0,0,-1,-1740,730)" style="stroke:#000000;stroke-width:0.05mm;fill:none" d="M257.5,165L257.5,155C257.5,153.619293,258.619293,152.5,260,152.5C261.380707,152.5,262.5,153.619293,262.5,155L262.5,165C262.5,166.380707,261.380707,167.5,260,167.5C258.619293,167.5,257.5,166.380707,257.5,165z"/>
    <path transform="matrix(1,0,0,-1,-1740,730)" style="stroke:#000000;stroke-width:0.05mm;fill:none" d="M297.5,165L297.5,155C297.5,153.619293,298.619293,152.5,300,152.5C301.380707,152.5,302.5,153.619293,302.5,155L302.5,165C302.5,166.380707,301.380707,167.5,300,167.5C298.619293,167.5,297.5,166.380707,297.5,165z"/>
    <path transform="matrix(1,0,0,-1,-1740,730)" style="stroke:#000000;stroke-width:0.05mm;fill:none" d="M337.5,165L337.5,155C337.5,153.619293,338.619293,152.5,340,152.5C341.380707,152.5,342.5,153.619293,342.5,155L342.5,165C342.5,166.380707,341.380707,167.5,340,167.5C338.619293,167.5,337.5,166.380707,337.5,165z"/>
    <path transform="matrix(1,0,0,-1,-1740,730)" style="stroke:#000000;stroke-width:0.05mm;fill:none" d="M77.5,145L77.5,135C77.5,133.619293,78.619286,132.5,80,132.5C81.380714,132.5,82.5,133.619293,82.5,135L82.5,145C82.5,146.380707,81.380714,147.5,80,147.5C78.619286,147.5,77.5,146.380707,77.5,145z"/>
    <path transform="matrix(1,0,0,-1,-1740,730)" style="stroke:#000000;stroke-width:0.05mm;fill:none" d="M117.5,145L117.5,135C117.5,133.619293,118.619286,132.5,120,132.5C121.380714,132.5,122.5,133.619293,122.5,135L122.5,145C122.5,146.380707,121.380714,147.5,120,147.5C118.619286,147.5,117.5,146.380707,117.5,145z"/>
    <path transform="matrix(1,0,0,-1,-1740,730)" style="stroke:#000000;stroke-width:0.05mm;fill:none" d="M157.5,145L157.5,135C157.5,133.619293,158.619293,132.5,160,132.5C161.380707,132.5,162.5,133.619293,162.5,135L162.5,145C162.5,146.380707,161.380707,147.5,160,147.5C158.619293,147.5,157.5,146.380707,157.5,145z"/>
    <path transform="matrix(1,0,0,-1,-1740,730)" style="stroke:#000000;stroke-width:0.05mm;fill:none" d="M197.5,145L197.5,135C197.5,133.619293,198.619293,132.5,200,132.5C201.380707,132.5,202.5,133.619293,202.5,135L202.5,145C202.5,146.380707,201.380707,147.5,200,147.5C198.619293,147.5,197.5,146.380707,197.5,145z"/>
    <path transform="matrix(1,0,0,-1,-1740,730)" style="stroke:#000000;stroke-width:0.05mm;fill:none" d="M237.5,145L237.5,135C237.5,133.619293,238.619293,132.5,240,132.5C241.380707,132.5,242.5,133.619293,242.5,135L242.5,145C242.5,146.380707,241.380707,147.5,240,147.5C238.619293,147.5,237.5,146.380707,237.5,145z"/>
    <path transform="matrix(1,0,0,-1,-1740,730)" style="stroke:#000000;stroke-width:0.05mm;fill:none" d="M277.5,145L277.5,135C277.5,133.619293,278.619293,132.5,280,132.5C281.380707,132.5,282.5,133.619293,282.5,135L282.5,145C282.5,146.380707,281.380707,147.5,280,147.5C278.619293,147.5,277.5,146.380707,277.5,145z"/>
    <path transform="matrix(1,0,0,-1,-1740,730)" style="stroke:#000000;stroke-width:0.05mm;fill:none" d="M317.5,145L317.5,135C317.5,133.619293,318.619293,132.5,320,132.5C321.380707,132.5,322.5,133.619293,322.5,135L322.5,145C322.5,146.380707,321.380707,147.5,320,147.5C318.619293,147.5,317.5,146.380707,317.5,145z"/>
    <path transform="matrix(1,0,0,-1,-1740,730)" style="stroke:#000000;stroke-width:0.05mm;fill:none" d="M37.5,105L37.5,95C37.5,93.619286,38.619289,92.5,40,92.5C41.380714,92.5,42.5,93.619286,42.5,95L42.5,105C42.5,106.380714,41.380711,107.5,40,107.5C38.619289,107.5,37.5,106.380714,37.5,105z"/>
    <path transform="matrix(1,0,0,-1,-1740,730)" style="stroke:#000000;stroke-width:0.05mm;fill:none" d="M17.5,125L17.5,115C17.5,113.619286,18.619289,112.5,20,112.5C21.380713,112.5,22.5,113.619286,22.5,115L22.5,125C22.5,126.380714,21.380713,127.5,20,127.5C18.619287,127.5,17.5,126.380714,17.5,125z"/>
    <path transform="matrix(1,0,0,-1,-1740,730)" style="stroke:#000000;stroke-width:0.05mm;fill:none" d="M57.5,125L57.5,115C57.5,113.619286,58.619289,112.5,60,112.5C61.380714,112.5,62.5,113.619286,62.5,115L62.5,125C62.5,126.380714,61.380711,127.5,60,127.5C58.619289,127.5,57.5,126.380714,57.5,125z"/>
    <path transform="matrix(1,0,0,-1,-1740,730)" style="stroke:#000000;stroke-width:0.05mm;fill:none" d="M97.5,125L97.5,115C97.5,113.619286,98.619286,112.5,100,112.5C101.380714,112.5,102.5,113.619286,102.5,115L102.5,125C102.5,126.380714,101.380714,127.5,100,127.5C98.619286,127.5,97.5,126.380714,97.5,125z"/>
    <path transform="matrix(1,0,0,-1,-1740,730)" style="stroke:#000000;stroke-width:0.05mm;fill:none" d="M137.5,125L137.5,115C137.5,113.619286,138.619293,112.5,140,112.5C141.380707,112.5,142.5,113.619286,142.5,115L142.5,125C142.5,126.380714,141.380707,127.5,140,127.5C138.619293,127.5,137.5,126.380714,137.5,125z"/>
    <path transform="matrix(1,0,0,-1,-1740,730)" style="stroke:#000000;stroke-width:0.05mm;fill:none" d="M177.5,125L177.5,115C177.5,113.619286,178.619293,112.5,180,112.5C181.380707,112.5,182.5,113.619286,182.5,115L182.5,125C182.5,126.380714,181.380707,127.5,180,127.5C178.619293,127.5,177.5,126.380714,177.5,125z"/>
    <path transform="matrix(1,0,0,-1,-1740,730)" style="stroke:#000000;stroke-width:0.05mm;fill:none" d="M217.5,125L217.5,115C217.5,113.619286,218.619293,112.5,220,112.5C221.380707,112.5,222.5,113.619286,222.5,115L222.5,125C222.5,126.380714,221.380707,127.5,220,127.5C218.619293,127.5,217.5,126.380714,217.5,125z"/>
    <path transform="matrix(1,0,0,-1,-1740,730)" style="stroke:#000000;stroke-width:0.05mm;fill:none" d="M257.5,125L257.5,115C257.5,113.619286,258.619293,112.5,260,112.5C261.380707,112.5,262.5,113.619286,262.5,115L262.5,125C262.5,126.380714,261.380707,127.5,260,127.5C258.619293,127.5,257.5,126.380714,257.5,125z"/>
    <path transform="matrix(1,0,0,-1,-1740,730)" style="stroke:#000000;stroke-width:0.05mm;fill:none" d="M297.5,125L297.5,115C297.5,113.619286,298.619293,112.5,300,112.5C301.380707,112.5,302.5,113.619286,302.5,115L302.5,125C302.5,126.380714,301.380707,127.5,300,127.5C298.619293,127.5,297.5,126.380714,297.5,125z"/>
    <path transform="matrix(1,0,0,-1,-1740,730)" style="stroke:#000000;stroke-width:0.05mm;fill:none" d="M337.5,125L337.5,115C337.5,113.619286,338.619293,112.5,340,112.5C341.380707,112.5,342.5,113.619286,342.5,115L342.5,125C342.5,126.380714,341.380707,127.5,340,127.5C338.619293,127.5,337.5,126.380714,337.5,125z"/>
    <path transform="matrix(1,0,0,-1,-1740,730)" style="stroke:#000000;stroke-width:0.05mm;fill:none" d="M77.5,105L77.5,95C77.5,93.619286,78.619286,92.5,80,92.5C81.380714,92.5,82.5,93.619286,82.5,95L82.5,105C82.5,106.380714,81.380714,107.5,80,107.5C78.619286,107.5,77.5,106.380714,77.5,105z"/>
    <path transform="matrix(1,0,0,-1,-1740,730)" style="stroke:#000000;stroke-width:0.05mm;fill:none" d="M117.5,105L117.5,95C117.5,93.619286,118.619286,92.5,120,92.5C121.380714,92.5,122.5,93.619286,122.5,95L122.5,105C122.5,106.380714,121.380714,107.5,120,107.5C118.619286,107.5,117.5,106.380714,117.5,105z"/>
    <path transform="matrix(1,0,0,-1,-1740,730)" style="stroke:#000000;stroke-width:0.05mm;fill:none" d="M157.5,105L157.5,95C157.5,93.619286,158.619293,92.5,160,92.5C161.380707,92.5,162.5,93.619286,162.5,95L162.5,105C162.5,106.380714,161.380707,107.5,160,107.5C158.619293,107.5,157.5,106.380714,157.5,105z"/>
    <path transform="matrix(1,0,0,-1,-1740,730)" style="stroke:#000000;stroke-width:0.05mm;fill:none" d="M197.5,105L197.5,95C197.5,93.619286,198.619293,92.5,200,92.5C201.380707,92.5,202.5,93.619286,202.5,95L202.5,105C202.5,106.380714,201.380707,107.5,200,107.5C198.619293,107.5,197.5,106.380714,197.5,105z"/>
    <path transform="matrix(1,0,0,-1,-1740,730)" style="stroke:#000000;stroke-width:0.05mm;fill:none" d="M237.5,105L237.5,95C237.5,93.619286,238.619293,92.5,240,92.5C241.380707,92.5,242.5,93.619286,242.5,95L242.5,105C242.5,106.380714,241.380707,107.5,240,107.5C238.619293,107.5,237.5,106.380714,237.5,105z"/>
    <path transform="matrix(1,0,0,-1,-1740,730)" style="stroke:#000000;stroke-width:0.05mm;fill:none" d="M277.5,105L277.5,95C277.5,93.619286,278.619293,92.5,280,92.5C281.380707,92.5,282.5,93.619286,282.5,95L282.5,105C282.5,106.380714,281.380707,107.5,280,107.5C278.619293,107.5,277.5,106.380714,277.5,105z"/>
    <path transform="matrix(1,0,0,-1,-1740,730)" style="stroke:#000000;stroke-width:0.05mm;fill:none" d="M317.5,105L317.5,95C317.5,93.619286,318.619293,92.5,320,92.5C321.380707,92.5,322.5,93.619286,322.5,95L322.5,105C322.5,106.380714,321.380707,107.5,320,107.5C318.619293,107.5,317.5,106.380714,317.5,105z"/>
    <path transform="matrix(1,0,0,-1,-1740,730)" style="stroke:#000000;stroke-width:0.05mm;fill:none" d="M37.5,65L37.5,55C37.5,53.619289,38.619289,52.5,40,52.5C41.380714,52.5,42.5,53.619289,42.5,55L42.5,65C42.5,66.380714,41.380711,67.5,40,67.5C38.619289,67.5,37.5,66.380714,37.5,65z"/>
    <path transform="matrix(1,0,0,-1,-1740,730)" style="stroke:#000000;stroke-width:0.05mm;fill:none" d="M17.5,85L17.5,75C17.5,73.619286,18.619289,72.5,20,72.5C21.380713,72.5,22.5,73.619286,22.5,75L22.5,85C22.5,86.380714,21.380713,87.5,20,87.5C18.619287,87.5,17.5,86.380714,17.5,85z"/>
    <path transform="matrix(1,0,0,-1,-1740,730)" style="stroke:#000000;stroke-width:0.05mm;fill:none" d="M57.5,85L57.5,75C57.5,73.619286,58.619289,72.5,60,72.5C61.380714,72.5,62.5,73.619286,62.5,75L62.5,85C62.5,86.380714,61.380711,87.5,60,87.5C58.619289,87.5,57.5,86.380714,57.5,85z"/>
    <path transform="matrix(1,0,0,-1,-1740,730)" style="stroke:#000000;stroke-width:0.05mm;fill:none" d="M97.5,85L97.5,75C97.5,73.619286,98.619286,72.5,100,72.5C101.380714,72.5,102.5,73.619286,102.5,75L102.5,85C102.5,86.380714,101.380714,87.5,100,87.5C98.619286,87.5,97.5,86.380714,97.5,85z"/>
    <path transform="matrix(1,0,0,-1,-1740,730)" style="stroke:#000000;stroke-width:0.05mm;fill:none" d="M137.5,85L137.5,75C137.5,73.619286,138.619293,72.5,140,72.5C141.380707,72.5,142.5,73.619286,142.5,75L142.5,85C142.5,86.380714,141.380707,87.5,140,87.5C138.619293,87.5,137.5,86.380714,137.5,85z"/>
    <path transform="matrix(1,0,0,-1,-1740,730)" style="stroke:#000000;stroke-width:0.05mm;fill:none" d="M177.5,85L177.5,75C177.5,73.619286,178.619293,72.5,180,72.5C181.380707,72.5,182.5,73.619286,182.5,75L182.5,85C182.5,86.380714,181.380707,87.5,180,87.5C178.619293,87.5,177.5,86.380714,177.5,85z"/>
    <path transform="matrix(1,0,0,-1,-1740,730)" style="stroke:#000000;stroke-width:0.05mm;fill:none" d="M217.5,85L217.5,75C217.5,73.619286,218.619293,72.5,220,72.5C221.380707,72.5,222.5,73.619286,222.5,75L222.5,85C222.5,86.380714,221.380707,87.5,220,87.5C218.619293,87.5,217.5,86.380714,217.5,85z"/>
    <path transform="matrix(1,0,0,-1,-1740,730)" style="stroke:#000000;stroke-width:0.05mm;fill:none" d="M257.5,85L257.5,75C257.5,73.619286,258.619293,72.5,260,72.5C261.380707,72.5,262.5,73.619286,262.5,75L262.5,85C262.5,86.380714,261.380707,87.5,260,87.5C258.619293,87.5,257.5,86.380714,257.5,85z"/>
    <path transform="matrix(1,0,0,-1,-1740,730)" style="stroke:#000000;stroke-width:0.05mm;fill:none" d="M297.5,85L297.5,75C297.5,73.619286,298.619293,72.5,300,72.5C301.380707,72.5,302.5,73.619286,302.5,75L302.5,85C302.5,86.380714,301.380707,87.5,300,87.5C298.619293,87.5,297.5,86.380714,297.5,85z"/>
    <path transform="matrix(1,0,0,-1,-1740,730)" style="stroke:#000000;stroke-width:0.05mm;fill:none" d="M337.5,85L337.5,75C337.5,73.619286,338.619293,72.5,340,72.5C341.380707,72.5,342.5,73.619286,342.5,75L342.5,85C342.5,86.380714,341.380707,87.5,340,87.5C338.619293,87.5,337.5,86.380714,337.5,85z"/>
    <path transform="matrix(1,0,0,-1,-1740,730)" style="stroke:#000000;stroke-width:0.05mm;fill:none" d="M77.5,65L77.5,55C77.5,53.619289,78.619286,52.5,80,52.5C81.380714,52.5,82.5,53.619289,82.5,55L82.5,65C82.5,66.380714,81.380714,67.5,80,67.5C78.619286,67.5,77.5,66.380714,77.5,65z"/>
    <path transform="matrix(1,0,0,-1,-1740,730)" style="stroke:#000000;stroke-width:0.05mm;fill:none" d="M117.5,65L117.5,55C117.5,53.619289,118.619286,52.5,120,52.5C121.380714,52.5,122.5,53.619289,122.5,55L122.5,65C122.5,66.380714,121.380714,67.5,120,67.5C118.619286,67.5,117.5,66.380714,117.5,65z"/>
    <path transform="matrix(1,0,0,-1,-1740,730)" style="stroke:#000000;stroke-width:0.05mm;fill:none" d="M157.5,65L157.5,55C157.5,53.619289,158.619293,52.5,160,52.5C161.380707,52.5,162.5,53.619289,162.5,55L162.5,65C162.5,66.380714,161.380707,67.5,160,67.5C158.619293,67.5,157.5,66.380714,157.5,65z"/>
    <path transform="matrix(1,0,0,-1,-1740,730)" style="stroke:#000000;stroke-width:0.05mm;fill:none" d="M197.5,65L197.5,55C197.5,53.619289,198.619293,52.5,200,52.5C201.380707,52.5,202.5,53.619289,202.5,55L202.5,65C202.5,66.380714,201.380707,67.5,200,67.5C198.619293,67.5,197.5,66.380714,197.5,65z"/>
    <path transform="matrix(1,0,0,-1,-1740,730)" style="stroke:#000000;stroke-width:0.05mm;fill:none" d="M237.5,65L237.5,55C237.5,53.619289,238.619293,52.5,240,52.5C241.380707,52.5,242.5,53.619289,242.5,55L242.5,65C242.5,66.380714,241.380707,67.5,240,67.5C238.619293,67.5,237.5,66.380714,237.5,65z"/>
    <path transform="matrix(1,0,0,-1,-1740,730)" style="stroke:#000000;stroke-width:0.05mm;fill:none" d="M277.5,65L277.5,55C277.5,53.619289,278.619293,52.5,280,52.5C281.380707,52.5,282.5,53.619289,282.5,55L282.5,65C282.5,66.380714,281.380707,67.5,280,67.5C278.619293,67.5,277.5,66.380714,277.5,65z"/>
    <path transform="matrix(1,0,0,-1,-1740,730)" style="stroke:#000000;stroke-width:0.05mm;fill:none" d="M317.5,65L317.5,55C317.5,53.619289,318.619293,52.5,320,52.5C321.380707,52.5,322.5,53.619289,322.5,55L322.5,65C322.5,66.380714,321.380707,67.5,320,67.5C318.619293,67.5,317.5,66.380714,317.5,65z"/>
    <path transform="matrix(1,0,0,-1,-1740,730)" style="stroke:#000000;stroke-width:0.05mm;fill:none" d="M37.5,25L37.5,15C37.5,13.619287,38.619289,12.5,40,12.5C41.380714,12.5,42.5,13.619289,42.5,15L42.5,25C42.5,26.380713,41.380711,27.5,40,27.5C38.619289,27.5,37.5,26.380713,37.5,25z"/>
    <path transform="matrix(1,0,0,-1,-1740,730)" style="stroke:#000000;stroke-width:0.05mm;fill:none" d="M17.5,45L17.5,35C17.5,33.619289,18.619289,32.5,20,32.5C21.380713,32.5,22.5,33.619289,22.5,35L22.5,45C22.5,46.380711,21.380713,47.5,20,47.5C18.619287,47.5,17.5,46.380711,17.5,45z"/>
    <path transform="matrix(1,0,0,-1,-1740,730)" style="stroke:#000000;stroke-width:0.05mm;fill:none" d="M57.5,45L57.5,35C57.5,33.619289,58.619289,32.5,60,32.5C61.380714,32.5,62.5,33.619289,62.5,35L62.5,45C62.5,46.380711,61.380711,47.5,60,47.5C58.619289,47.5,57.5,46.380711,57.5,45z"/>
    <path transform="matrix(1,0,0,-1,-1740,730)" style="stroke:#000000;stroke-width:0.05mm;fill:none" d="M97.5,45L97.5,35C97.5,33.619289,98.619286,32.5,100,32.5C101.380714,32.5,102.5,33.619289,102.5,35L102.5,45C102.5,46.380711,101.380714,47.5,100,47.5C98.619286,47.5,97.5,46.380711,97.5,45z"/>
    <path transform="matrix(1,0,0,-1,-1740,730)" style="stroke:#000000;stroke-width:0.05mm;fill:none" d="M137.5,45L137.5,35C137.5,33.619289,138.619293,32.5,140,32.5C141.380707,32.5,142.5,33.619289,142.5,35L142.5,45C142.5,46.380711,141.380707,47.5,140,47.5C138.619293,47.5,137.5,46.380711,137.5,45z"/>
    <path transform="matrix(1,0,0,-1,-1740,730)" style="stroke:#000000;stroke-width:0.05mm;fill:none" d="M177.5,45L177.5,35C177.5,33.619289,178.619293,32.5,180,32.5C181.380707,32.5,182.5,33.619289,182.5,35L182.5,45C182.5,46.380711,181.380707,47.5,180,47.5C178.619293,47.5,177.5,46.380711,177.5,45z"/>
    <path transform="matrix(1,0,0,-1,-1740,730)" style="stroke:#000000;stroke-width:0.05mm;fill:none" d="M217.5,45L217.5,35C217.5,33.619289,218.619293,32.5,220,32.5C221.380707,32.5,222.5,33.619289,222.5,35L222.5,45C222.5,46.380711,221.380707,47.5,220,47.5C218.619293,47.5,217.5,46.380711,217.5,45z"/>
    <path transform="matrix(1,0,0,-1,-1740,730)" style="stroke:#000000;stroke-width:0.05mm;fill:none" d="M257.5,45L257.5,35C257.5,33.619289,258.619293,32.5,260,32.5C261.380707,32.5,262.5,33.619289,262.5,35L262.5,45C262.5,46.380711,261.380707,47.5,260,47.5C258.619293,47.5,257.5,46.380711,257.5,45z"/>
    <path transform="matrix(1,0,0,-1,-1740,730)" style="stroke:#000000;stroke-width:0.05mm;fill:none" d="M297.5,45L297.5,35C297.5,33.619289,298.619293,32.5,300,32.5C301.380707,32.5,302.5,33.619289,302.5,35L302.5,45C302.5,46.380711,301.380707,47.5,300,47.5C298.619293,47.5,297.5,46.380711,297.5,45z"/>
    <path transform="matrix(1,0,0,-1,-1740,730)" style="stroke:#000000;stroke-width:0.05mm;fill:none" d="M337.5,45L337.5,35C337.5,33.619289,338.619293,32.5,340,32.5C341.380707,32.5,342.5,33.619289,342.5,35L342.5,45C342.5,46.380711,341.380707,47.5,340,47.5C338.619293,47.5,337.5,46.380711,337.5,45z"/>
    <path transform="matrix(1,0,0,-1,-1740,730)" style="stroke:#000000;stroke-width:0.05mm;fill:none" d="M77.5,25L77.5,15C77.5,13.619287,78.619286,12.5,80,12.5C81.380714,12.5,82.5,13.619289,82.5,15L82.5,25C82.5,26.380713,81.380714,27.5,80,27.5C78.619286,27.5,77.5,26.380713,77.5,25z"/>
    <path transform="matrix(1,0,0,-1,-1740,730)" style="stroke:#000000;stroke-width:0.05mm;fill:none" d="M117.5,25L117.5,15C117.5,13.619287,118.619286,12.5,120,12.5C121.380714,12.5,122.5,13.619289,122.5,15L122.5,25C122.5,26.380713,121.380714,27.5,120,27.5C118.619286,27.5,117.5,26.380713,117.5,25z"/>
    <path transform="matrix(1,0,0,-1,-1740,730)" style="stroke:#000000;stroke-width:0.05mm;fill:none" d="M157.5,25L157.5,15C157.5,13.619287,158.619293,12.5,160,12.5C161.380707,12.5,162.5,13.619289,162.5,15L162.5,25C162.5,26.380713,161.380707,27.5,160,27.5C158.619293,27.5,157.5,26.380713,157.5,25z"/>
    <path transform="matrix(1,0,0,-1,-1740,730)" style="stroke:#000000;stroke-width:0.05mm;fill:none" d="M197.5,25L197.5,15C197.5,13.619287,198.619293,12.5,200,12.5C201.380707,12.5,202.5,13.619289,202.5,15L202.5,25C202.5,26.380713,201.380707,27.5,200,27.5C198.619293,27.5,197.5,26.380713,197.5,25z"/>
    <path transform="matrix(1,0,0,-1,-1740,730)" style="stroke:#000000;stroke-width:0.05mm;fill:none" d="M237.5,25L237.5,15C237.5,13.619287,238.619293,12.5,240,12.5C241.380707,12.5,242.5,13.619289,242.5,15L242.5,25C242.5,26.380713,241.380707,27.5,240,27.5C238.619293,27.5,237.5,26.380713,237.5,25z"/>
    <path transform="matrix(1,0,0,-1,-1740,730)" style="stroke:#000000;stroke-width:0.05mm;fill:none" d="M277.5,25L277.5,15C277.5,13.619287,278.619293,12.5,280,12.5C281.380707,12.5,282.5,13.619289,282.5,15L282.5,25C282.5,26.380713,281.380707,27.5,280,27.5C278.619293,27.5,277.5,26.380713,277.5,25z"/>
    <path transform="matrix(1,0,0,-1,-1740,730)" style="stroke:#000000;stroke-width:0.05mm;fill:none" d="M317.5,25L317.5,15C317.5,13.619287,318.619293,12.5,320,12.5C321.380707,12.5,322.5,13.619289,322.5,15L322.5,25C322.5,26.380713,321.380707,27.5,320,27.5C318.619293,27.5,317.5,26.380713,317.5,25z"/>
</svg>
